<?xml version="1.0" standalone="no"?>
<!DOCTYPE svg PUBLIC "-//W3C//DTD SVG 20010904//EN"
 "http://www.w3.org/TR/2001/REC-SVG-20010904/DTD/svg10.dtd">
<svg version="1.0" xmlns="http://www.w3.org/2000/svg"
 width="520.000000pt" height="512.000000pt" viewBox="0 0 520.000000 512.000000"
 preserveAspectRatio="xMidYMid meet">
<g transform="translate(0.000000,512.000000) scale(0.100000,-0.100000)"
fill="#4479A1" stroke="none">
<path d="M187 5106 c-59 -22 -102 -56 -135 -105 -44 -69 -55 -113 -50 -202 5
-92 45 -182 126 -289 27 -36 92 -122 144 -191 125 -166 144 -200 180 -321 16
-56 58 -183 94 -282 95 -260 181 -425 280 -536 30 -34 54 -63 54 -66 0 -3 -6
-17 -14 -33 -23 -44 -113 -418 -126 -525 -17 -135 -7 -400 19 -527 40 -187 99
-330 184 -445 104 -141 224 -195 335 -149 80 34 115 91 137 227 34 204 49 288
55 288 3 0 36 -62 74 -137 37 -76 89 -167 114 -203 58 -82 222 -252 327 -338
44 -37 122 -106 173 -154 84 -80 166 -137 179 -125 2 3 -49 59 -114 124 -132
131 -231 265 -381 512 -100 165 -258 479 -312 621 -50 132 -60 152 -70 148
-22 -7 -142 -166 -170 -223 -41 -86 -59 -166 -84 -365 -20 -163 -23 -175 -43
-178 -37 -5 -100 62 -142 152 -87 182 -123 358 -123 596 -1 200 17 297 92 520
85 251 83 276 -39 405 -99 106 -163 238 -267 552 -47 142 -103 294 -125 337
-42 84 -138 225 -251 368 -151 190 -178 312 -81 354 51 21 102 13 226 -37 157
-63 311 -146 380 -206 34 -30 73 -60 87 -67 22 -11 132 -24 356 -42 202 -15
579 -210 894 -463 371 -296 732 -766 876 -1139 25 -63 93 -218 153 -345 60
-128 138 -297 174 -377 113 -248 188 -371 254 -416 18 -12 79 -36 135 -55 134
-43 363 -126 402 -146 17 -9 101 -63 186 -121 85 -59 208 -141 272 -185 65
-43 127 -90 139 -105 l21 -27 -159 -6 c-238 -10 -365 -36 -611 -125 -73 -27
-73 -41 -5 -180 36 -75 134 -182 240 -261 150 -112 191 -137 413 -246 192 -95
344 -193 455 -296 47 -43 85 -67 85 -52 0 5 -13 38 -29 73 -20 45 -42 76 -74
102 -25 20 -63 61 -85 89 -107 142 -277 288 -460 396 -145 85 -230 149 -261
196 -13 19 -22 37 -20 39 14 12 303 77 380 86 126 15 188 27 287 56 68 20 82
28 82 45 0 29 -119 178 -204 254 -111 100 -276 227 -446 340 -146 98 -351 201
-548 276 -39 15 -59 31 -81 62 -60 88 -392 793 -491 1042 -126 317 -437 740
-760 1033 -187 170 -458 365 -694 500 -158 91 -395 155 -611 166 -145 8 -129
1 -268 110 -83 65 -257 153 -387 197 -113 38 -276 50 -343 25z"/>
<path d="M1075 4243 c-46 -10 -47 -12 -24 -45 13 -18 40 -53 62 -78 21 -24 57
-84 79 -132 23 -48 44 -88 48 -88 13 0 49 46 65 82 34 84 6 175 -75 234 -45
33 -91 41 -155 27z"/>
</g>
</svg>
